<svg width="48" height="48" viewBox="0 0 48 48" fill="none" xmlns="http://www.w3.org/2000/svg">
<g clip-path="url(#clip0_576_2435)">
<path fill-rule="evenodd" clip-rule="evenodd" d="M0 24C0 20.68 0.630397 17.56 1.8912 14.64C3.1504 11.72 4.86 9.18 7.02 7.02C9.18 4.86 11.72 3.1504 14.64 1.8912C17.56 0.6304 20.68 0 24 0C27.32 0 30.44 0.6304 33.36 1.8912C36.28 3.1504 38.82 4.86 40.98 7.02C43.14 9.18 44.8504 11.72 46.1112 14.64C47.3704 17.56 48 20.68 48 24C48 27.32 47.3704 30.44 46.1112 33.36C44.8504 36.28 43.14 38.82 40.98 40.98C38.82 43.14 36.28 44.8496 33.36 46.1088C30.44 47.3696 27.32 48 24 48C20.68 48 17.56 47.3696 14.64 46.1088C11.72 44.8496 9.18 43.14 7.02 40.98C4.86 38.82 3.1504 36.28 1.8912 33.36C0.630397 30.44 0 27.32 0 24ZM10.4088 37.5912C6.6696 33.8504 4.8 29.32 4.8 24C4.8 18.68 6.6696 14.1504 10.4088 10.4112C14.1496 6.6704 18.68 4.8 24 4.8C29.32 4.8 33.8504 6.6704 37.5912 10.4112C41.3304 14.1504 43.2 18.68 43.2 24C43.2 29.32 41.3304 33.8504 37.5912 37.5912C33.8504 41.3304 29.32 43.2 24 43.2C18.68 43.2 14.1496 41.3304 10.4088 37.5912Z" fill="#E931CC"/>
<path d="M17.64 23.16C17.4 23.4 17.28 23.68 17.28 24C17.28 24.32 17.4 24.6 17.64 24.84L24.36 31.56C24.76 31.96 25.2 32.06 25.68 31.86C26.16 31.66 26.4 31.28 26.4 30.72L26.4 17.28C26.4 16.72 26.16 16.34 25.68 16.14C25.2 15.94 24.76 16.04 24.36 16.44L17.64 23.16Z" fill="#E931CC"/>
<path fill-rule="evenodd" clip-rule="evenodd" d="M4.8 24C4.8 29.32 6.6696 33.8504 10.4088 37.5912C14.1496 41.3304 18.68 43.2 24 43.2C29.32 43.2 33.8504 41.3304 37.5912 37.5912C41.3304 33.8504 43.2 29.32 43.2 24C43.2 18.68 41.3304 14.1504 37.5912 10.4112C33.8504 6.6704 29.32 4.8 24 4.8C18.68 4.8 14.1496 6.6704 10.4088 10.4112C6.6696 14.1504 4.8 18.68 4.8 24ZM17.28 24C17.28 23.68 17.4 23.4 17.64 23.16L24.36 16.44C24.76 16.04 25.2 15.94 25.68 16.14C26.16 16.34 26.4 16.72 26.4 17.28L26.4 30.72C26.4 31.28 26.16 31.66 25.68 31.86C25.2 32.06 24.76 31.96 24.36 31.56L17.64 24.84C17.4 24.6 17.28 24.32 17.28 24Z" fill="white"/>
</g>
<defs>
<clipPath id="clip0_576_2435">
<rect width="48" height="48" fill="white" transform="matrix(0 1 -1 0 48 0)"/>
</clipPath>
</defs>
</svg>
